SplineFontDB: 3.0
FontName: DejaVuBB
FullName: DejaVu BB
FamilyName: DejaVuBB
Weight: Regular
Copyright: Copyright (c) 2003 by Bitstream, Inc. All Rights Reserved.\nCopyright (c) 2006 by Tavmjong Bah. All Rights Reserved.\nDejaVu changes are in public domain.\nModified by Rogerio Theodoro de Brito to be used as a Blackboard font with TeX. Changes in public domain.\n
Version: 0.0
ItalicAngle: 0
UnderlinePosition: -85
UnderlineWidth: 90
Ascent: 1556
Descent: 492
LayerCount: 2
Layer: 0 0 "Back"  1
Layer: 1 0 "Fore"  0
NeedsXUIDChange: 1
FSType: 0
OS2Version: 0
OS2_WeightWidthSlopeOnly: 0
OS2_UseTypoMetrics: 0
CreationTime: 1318071242
ModificationTime: 1318075013
PfmFamily: 33
TTFWeight: 700
TTFWidth: 5
LineGap: 0
VLineGap: 0
OS2TypoAscent: 1556
OS2TypoAOffset: 0
OS2TypoDescent: -492
OS2TypoDOffset: 0
OS2TypoLinegap: 410
OS2WinAscent: 1901
OS2WinAOffset: 0
OS2WinDescent: 483
OS2WinDOffset: 0
HheadAscent: 1901
HheadAOffset: 0
HheadDescent: -483
HheadDOffset: 0
OS2Vendor: 'PfEd'
OS2CodePages: 600001ff.dfff0000
MarkAttachClasses: 1
DEI: 91125
TtTable: prep
PUSHW_1
 640
NPUSHB
 255
 251
 254
 3
 250
 20
 3
 249
 37
 3
 248
 50
 3
 247
 150
 3
 246
 14
 3
 245
 254
 3
 244
 254
 3
 243
 37
 3
 242
 14
 3
 241
 150
 3
 240
 37
 3
 239
 138
 65
 5
 239
 254
 3
 238
 150
 3
 237
 150
 3
 236
 250
 3
 235
 250
 3
 234
 254
 3
 233
 58
 3
 232
 66
 3
 231
 254
 3
 230
 50
 3
 229
 228
 83
 5
 229
 150
 3
 228
 138
 65
 5
 228
 83
 3
 227
 226
 47
 5
 227
 250
 3
 226
 47
 3
 225
 254
 3
 224
 254
 3
 223
 50
 3
 222
 20
 3
 221
 150
 3
 220
 254
 3
 219
 18
 3
 218
 125
 3
 217
 187
 3
 216
 254
 3
 214
 138
 65
 5
 214
 125
 3
 213
 212
 71
 5
 213
 125
 3
 212
 71
 3
 211
 210
 27
 5
 211
 254
 3
 210
 27
 3
 209
 254
 3
 208
 254
 3
 207
 254
 3
 206
 254
 3
 205
 150
 3
 204
 203
 30
 5
 204
 254
 3
 203
 30
 3
 202
 50
 3
 201
 254
 3
 198
 133
 17
 5
 198
 28
 3
 197
 22
 3
 196
 254
 3
 195
 254
 3
 194
 254
 3
 193
 254
 3
 192
 254
 3
 191
 254
 3
 190
 254
 3
 189
 254

StartChar: .notdef
Encoding: 65536 -1 0
Width: 1229
Flags: W
HStem: -362 114<217 1012> 1329 115<217 1012>
VStem: 102 115<-248 1329> 1012 114<-248 1329>
LayerCount: 2
Fore
SplineSet
102 -362 m 1
 102 1444 l 1
 1126 1444 l 1
 1126 -362 l 1
 102 -362 l 1
217 -248 m 1
 1012 -248 l 1
 1012 1329 l 1
 217 1329 l 1
 217 -248 l 1
EndSplineSet
EndChar

StartChar: C
Encoding: 67 67 399
Width: 1430
Flags: W
HStem: -29 105<587.686 1107.93> 1415 105<587.48 1107.64>
VStem: 115 120<447.478 1043.23> 458 105<188 1303>
LayerCount: 2
Fore
SplineSet
115 745 m 0
 115 1212.34 382.7 1520 844 1520 c 0
 1042.54 1519.99 1193.55 1463.65 1319 1378 c 1
 1319 1260 l 1
 1201.44 1345.86 1049.83 1415 847 1415 c 0
 738.333 1414.99 643.667 1397.66 563 1363 c 1
 563 128 l 1
 643.667 93.3333 738.333 76 847 76 c 0
 1050.29 76 1201.76 145.059 1319 232 c 1
 1319 115 l 1
 1192.45 29.0424 1042.29 -29 844 -29 c 0
 383.233 -29 115 278.532 115 745 c 0
458 1303 m 1
 310.25 1189.02 235 1005.26 235 745 c 0
 235 485.509 310.336 301.912 458 188 c 1
 458 1303 l 1
EndSplineSet
EndChar

StartChar: H
Encoding: 72 72 400
Width: 1740
Flags: W
HStem: 0 100<301 503 1237 1439> 731 130<603 1137> 1393 100<301 503 1237 1439>
VStem: 201 100<100 1393> 503 100<100 731 861 1393> 1137 100<100 731 861 1393> 1439 100<100 1393>
LayerCount: 2
Fore
SplineSet
1237 1393 m 1
 1237 100 l 1
 1439 100 l 1
 1439 1393 l 1
 1237 1393 l 1
301 1393 m 1
 301 100 l 1
 503 100 l 1
 503 1393 l 1
 301 1393 l 1
201 1493 m 1
 603 1493 l 1
 603 861 l 1
 1137 861 l 1
 1137 1493 l 1
 1539 1493 l 1
 1539 0 l 1
 1137 0 l 1
 1137 731 l 1
 603 731 l 1
 603 0 l 1
 201 0 l 1
 201 1493 l 1
EndSplineSet
EndChar

StartChar: N
Encoding: 78 78 401
Width: 1640
Flags: W
HStem: 0 100<1073.5 1311.5> 1393 100<328.5 566.5>
VStem: 198.5 100<0 1249> 1341.5 100<244 1493>
LayerCount: 2
Fore
SplineSet
1311.5 100 m 1
 566.5 1393 l 1
 328.5 1393 l 1
 1073.5 100 l 1
 1311.5 100 l 1
198.5 1493 m 1
 621.5 1493 l 1
 1341.5 244 l 1
 1341.5 1493 l 1
 1441.5 1493 l 1
 1441.5 0 l 1
 1018.5 0 l 1
 298.5 1249 l 1
 298.5 0 l 1
 198.5 0 l 1
 198.5 1493 l 1
EndSplineSet
EndChar

StartChar: P
Encoding: 80 80 402
Width: 1436
Flags: W
HStem: 0 100<300 502> 632 99<602 950.281> 1393 100<300 502 602 950.281>
VStem: 200 100<100 1393> 502 100<100 632 731 1393> 951 105<755 1370> 1254 110<885.023 1245.6>
LayerCount: 2
Fore
SplineSet
300 1393 m 1
 300 100 l 1
 502 100 l 1
 502 1393 l 1
 300 1393 l 1
602 1393 m 1
 602 731 l 1
 904 731 l 2
 920 731 935.667 731.667 951 733 c 1
 951 1391 l 1
 935.664 1392.38 919.997 1393.04 904 1393 c 2
 602 1393 l 1
1364 1063 m 0
 1364 761.146 1169.45 632 856 632 c 2
 602 632 l 1
 602 0 l 1
 200 0 l 1
 200 1493 l 1
 857 1493 l 2
 1168.62 1493 1364 1362.66 1364 1063 c 0
1056 755 m 1
 1178.45 799.9 1254 903.321 1254 1063 c 0
 1254 1222.13 1179.57 1326.15 1056 1370 c 1
 1056 755 l 1
EndSplineSet
EndChar

StartChar: Q
Encoding: 81 81 403
Width: 1612
Flags: W
HStem: -29 105<580.209 891> 1415 105<580.209 1033.09>
VStem: 115 120<455.076 1035.26> 458 105<191 1299> 1051 105<193 1298> 1377 120<457.707 1033.3>
LayerCount: 2
Fore
SplineSet
1090 27 m 1
 1356 -264 l 1
 1112 -264 l 1
 891 -25 l 1
 840 -28 l 2
 828.667 -28.6666 817.667 -28.9999 807 -29 c 0
 597 -29 429.167 41.1667 303.5 181.5 c 0
 177.833 321.833 115 509.667 115 745 c 0
 115 981 177.833 1169.17 303.5 1309.5 c 0
 429.167 1449.83 597 1520 807 1520 c 0
 1016.33 1520 1183.67 1449.83 1309 1309.5 c 0
 1434.33 1169.17 1497 981 1497 745 c 0
 1496.99 386.128 1343.51 139.674 1090 27 c 1
563 126 m 1
 635 92.6667 716.334 76 807 76 c 0
 897.667 76 979 92.6667 1051 126 c 1
 1051 1365 l 1
 979 1398.34 897.667 1415.01 807 1415 c 0
 716.333 1415 635 1398.33 563 1365 c 1
 563 126 l 1
458 1299 m 1
 313 1182.19 235 989.549 235 745 c 0
 235 498.072 314.305 310.747 458 191 c 1
 458 1299 l 1
1156 193 m 1
 1299.05 311.525 1377 501.441 1377 745.5 c 0
 1377 989.612 1299.14 1179.41 1156 1298 c 1
 1156 193 l 1
EndSplineSet
EndChar

StartChar: R
Encoding: 82 82 404
Width: 1622
Flags: W
HStem: 0 100<300 502 1218 1417> 631 100<602 804.873 897 971.203> 1393 100<300 502 602 973.281>
VStem: 200 100<100 1393> 502 100<100 631 731 1393> 974 105<755 1370> 1277 110<878.614 1247.95>
LayerCount: 2
Fore
SplineSet
1275 383 m 2
 1224.33 483.667 1176.33 550 1131 582 c 0
 1085 614.668 1022 631.001 942 631 c 10
 897 631 l 17
 948.333 599.667 1007.67 517 1075 383 c 2
 1218 100 l 25
 1417 100 l 25
 1275 383 l 2
1387 1063 m 24
 1387 861.022 1303.25 746.239 1153 691 c 1
 1188.33 674.333 1224.83 644 1262.5 600 c 0
 1300.17 556 1339.67 492 1381 408 c 2
 1586 0 l 1
 1146 0 l 1
 955 383 l 2
 905.666 483 857.833 549.334 811.5 582 c 0
 765.166 614.668 702 631.001 622 631 c 10
 602 631 l 17
 602 0 l 1
 200 0 l 1
 200 1493 l 1
 879 1493 l 2
 1198.44 1493 1387 1369.95 1387 1063 c 24
602 1393 m 1
 602 731 l 1
 927 731 l 2
 943 731 958.667 731.667 974 733 c 1
 974 1391 l 1
 958.665 1392.38 942.998 1393.04 927 1393 c 2
 602 1393 l 1
1079 755 m 1
 1205.23 797.725 1277 901.886 1277 1063 c 0
 1277 1224.65 1206.35 1328.18 1079 1370 c 1
 1079 755 l 1
300 1393 m 1
 300 100 l 1
 502 100 l 1
 502 1393 l 1
 300 1393 l 1
EndSplineSet
EndChar

StartChar: Z
Encoding: 90 90 405
Width: 1525
Flags: W
HStem: 0 100<222 456 586 1433> 1393 100<115 916 1046 1280>
LayerCount: 2
Fore
SplineSet
456 100 m 17
 1280 1393 l 1
 1046 1393 l 1
 222 100 l 9
 456 100 l 17
115 1493 m 1
 1410 1493 l 1
 1410 1393 l 1
 586 100 l 1
 1433 100 l 1
 1433 0 l 1
 92 0 l 1
 92 100 l 1
 916 1393 l 1
 115 1393 l 1
 115 1493 l 1
EndSplineSet
EndChar

StartChar: pi
Encoding: 960 960 406
Width: 1438
Flags: W
HStem: -16 100<1005.92 1301.06> 0 100<437 571> 142 89<1206.91 1301.51> 1020 100<161.797 337 437 571 671 838 938 1072 1172 1354>
VStem: 36 100<829 980.794> 337 100<100 1020> 571 100<100 1020> 838 100<155.67 1020> 1072 100<262.146 1020> 1302 100<86.1152 142>
LayerCount: 2
Fore
SplineSet
1302 90 m 9xbfc0
 1302 142 l 17
 1169.99 142 1109.99 186.791 1086.5 278 c 0
 1076.82 315.529 1071.98 388.196 1072 496 c 2
 1072 1020 l 1
 938 1020 l 1
 938 466 l 2
 938.007 355.167 941.841 279.458 949.5 238.875 c 0
 957.167 198.292 967.667 169.667 981 153 c 0
 1019 107 1075.5 84 1150.5 84 c 0
 1225.5 84 1276 86 1302 90 c 9xbfc0
36 829 m 1
 36 1052.66 92.224 1120 315 1120 c 2
 1354 1120 l 1
 1354 1020 l 1
 1172 1020 l 1
 1172 526 l 2
 1172.04 466.667 1172.7 426.667 1174 406 c 0
 1179.19 289.333 1217.69 230.999 1289.5 231 c 0
 1316.5 231 1354 234.334 1402 241 c 1
 1402 0 l 1x7fc0
 1324.67 -10.6667 1242.17 -16 1154.5 -16 c 0xbfc0
 985.78 -16 887.28 51.3333 859 186 c 0
 845 251.333 838 368.333 838 537 c 2
 838 1020 l 1
 671 1020 l 1
 671 0 l 1
 337 0 l 1x7fc0
 337 1020 l 1
 276 1020 l 2
 216 1020 177.667 1007.33 161 982 c 0
 144.333 956.667 136 905.667 136 829 c 1
 36 829 l 1
437 100 m 1
 571 100 l 1
 571 1020 l 1
 437 1020 l 1
 437 100 l 1
EndSplineSet
EndChar

StartChar: gamma
Encoding: 947 947 407
Width: 1490
Flags: W
HStem: -397 100<799 929> 1039 108<154.586 485.221> 1100 20G<1186.67 1370>
VStem: 0 100<880 982.946> 700 99<-297 41.9861> 929 101<-297 43.4053>
LayerCount: 2
Fore
SplineSet
471 1053 m 1x9c
 587 924.333 673.333 720 730 440 c 0
 776 210 799 -35.6667 799 -297 c 1
 929 -297 l 1
 929 -20.3333 906 225.333 860 440 c 0
 788 779.333 658.333 983.667 471 1053 c 1x9c
700 -397 m 1
 700 -37.6667 676.667 241.333 630 440 c 0
 536.667 839.333 424.333 1039 293 1039 c 0
 180.333 1039 116 986 100 880 c 9
 0 880 l 17
 0 945.333 23.6667 1004.33 71 1057 c 0
 125 1117 233.667 1147 397 1147 c 0xdc
 687.667 1147 878.667 911.333 970 440 c 1
 1043.33 713.333 1133.33 940 1240 1120 c 1
 1370 1120 l 17xbc
 1234.67 874 1144.67 647.333 1100 440 c 0
 1053.33 225.333 1030 -53.6667 1030 -397 c 1
 700 -397 l 1
EndSplineSet
EndChar

StartChar: Gamma
Encoding: 915 915 408
Width: 1340
Flags: W
HStem: 0 100<300 502> 1393 100<300 502 602 1328>
VStem: 200 100<100 1393> 502 100<100 1393>
LayerCount: 2
Fore
SplineSet
300 1393 m 1
 300 100 l 1
 502 100 l 1
 502 1393 l 1
 300 1393 l 1
1328 1493 m 1
 1328 1393 l 1
 602 1393 l 1
 602 0 l 1
 200 0 l 1
 200 1493 l 1
 1328 1493 l 1
EndSplineSet
EndChar

StartChar: Pi
Encoding: 928 928 409
Width: 1738
Flags: W
HStem: 0 100<301 503 1235 1437> 1393 100<301 503 603 1135 1235 1437>
VStem: 201 100<100 1393> 503 100<100 1393> 1135 100<100 1393> 1437 100<100 1393>
LayerCount: 2
Fore
SplineSet
1235 1393 m 1
 1235 100 l 1
 1437 100 l 1
 1437 1393 l 1
 1235 1393 l 1
301 1393 m 1
 301 100 l 1
 503 100 l 1
 503 1393 l 1
 301 1393 l 1
1537 0 m 9
 1135 0 l 17
 1135 1393 l 1
 603 1393 l 1
 603 0 l 1
 201 0 l 1
 201 1493 l 1
 1537 1493 l 17
 1537 0 l 9
EndSplineSet
EndChar

StartChar: Sigma
Encoding: 931 931 410
Width: 1660
Flags: W
HStem: -393 99<162 422 572 1619> 1373 100<184 444 594 1593>
LayerCount: 2
Fore
SplineSet
422 -294 m 17
 1206 563 l 1
 444 1373 l 1
 184 1373 l 1
 946 563 l 1
 162 -294 l 9
 422 -294 l 17
1593 1473 m 17
 1593 1373 l 1
 594 1373 l 1
 1356 563 l 1
 572 -294 l 1
 1619 -294 l 1
 1619 -393 l 1
 25 -393 l 1
 25 -294 l 1
 800 557 l 1
 55 1346 l 1
 55 1473 l 9
 1593 1473 l 17
EndSplineSet
EndChar

StartChar: uni2145
Encoding: 8517 8517 411
Width: 1677
Flags: W
HStem: 0 100<207 409 509 948.67> 1393 100<458 660 760 1190.47>
VStem: 1487 123<658.165 1149.91>
LayerCount: 2
Fore
SplineSet
892 1493 m 2
 1181.33 1493 1382 1432.67 1494 1312 c 0
 1571.34 1229.33 1610 1113.67 1610 965 c 0
 1610 899 1602.33 826.667 1587 748 c 0
 1489.3 245.183 1193.31 0 602 0 c 2
 87 0 l 1
 377 1493 l 1
 892 1493 l 2
760 1393 m 1
 509 100 l 1
 608 100 l 2
 771.333 100 910.667 121.667 1026 165 c 1
 1252 1328 l 1
 1154 1371.34 1023 1393 859 1393 c 2
 760 1393 l 1
458 1393 m 1
 207 100 l 1
 409 100 l 1
 660 1393 l 1
 458 1393 l 1
1347 1273 m 1
 1142 220 l 1
 1314.4 322.166 1418.93 499.531 1467 748 c 0
 1480.34 816 1487.01 878.334 1487 935 c 0
 1487 1088.29 1437.46 1200.63 1347 1273 c 1
EndSplineSet
EndChar

StartChar: uni2146
Encoding: 8518 8518 412
Width: 1450
Flags: W
HStem: -29 100<426.43 650.39> 0 92<934 1068> 1047 100<551.891 832.438> 1456 100<1199 1333>
VStem: 90 110<198.779 677.425>
LayerCount: 2
Fore
SplineSet
503 1010 m 1x38
 367.433 944.271 260.077 777.136 231 628 c 0
 210.333 522.667 200 445 200 395 c 0
 200 262.003 244.239 157.636 328 108 c 1
 503 1010 l 1x38
680 1147 m 0
 852.157 1146.99 951.31 1077.42 1001 950 c 1
 1119 1556 l 1
 1453 1556 l 1
 1150 0 l 1
 816 0 l 1x78
 849 168 l 1
 758.407 51.8562 640.264 -29 451 -29 c 0xb8
 315.667 -29 221.667 15.6667 169 105 c 0
 116.333 194.333 90 288.333 90 387 c 0
 90 440.334 101.333 526.333 124 645 c 0
 147.333 763.667 212 877 318 985 c 0
 424 1093 544.667 1147 680 1147 c 0
1199 1456 m 1
 934 92 l 1
 1068 92 l 1
 1333 1456 l 1
 1199 1456 l 1
615 1044 m 1
 426 74 l 1
 442.001 72 458.667 71 476 71 c 0xb8
 586 71 680.667 114.333 760 201 c 0
 840 287.667 890.334 384 911 490 c 0
 931.67 595.333 942.004 672.667 942 722 c 0
 941.997 799.333 923.331 872.667 886 942 c 0
 849.333 1012 776 1047 666 1047 c 0
 648.667 1047 631.667 1046 615 1044 c 1
EndSplineSet
EndChar

StartChar: uni2147
Encoding: 8519 8519 413
Width: 1260
Flags: W
HStem: -29 110<434.218 881.012> 516 100<532 1051.47> 1037 110<612.095 919.589>
VStem: 91 115<256.971 657.722> 1055 116<618.094 902.071>
LayerCount: 2
Fore
SplineSet
497 975 m 1
 348.788 893.093 254.83 748.957 218 560 c 0
 210 520 206 481.666 206 445 c 0
 206 324.835 254.572 208.714 336 149 c 1
 497 975 l 1
574 -29 m 0
 285.861 -29 91 119.949 91 404 c 0
 91 449.333 96 497.667 106 549 c 0
 169.016 875.968 400.546 1147 771 1147 c 0
 1019.51 1147 1171 1006.08 1171 756 c 0
 1170.99 709.333 1165.66 659.333 1155 606 c 2
 1137 516 l 1
 512 516 l 1
 432 102 l 1
 479.333 88 534.667 81 598 81 c 0
 755.422 81 906.821 121.314 1028 174 c 1
 1005 57 l 1
 878.371 7.29544 737.33 -29 574 -29 c 0
1055 722 m 0
 1055 914.609 940.484 1037 751 1037 c 0
 701.667 1037 654.667 1031.33 610 1020 c 1
 532 616 l 1
 1045 616 l 1
 1051.67 653.333 1055 688.667 1055 722 c 0
EndSplineSet
EndChar

StartChar: bracketleft
Encoding: 91 91 414
Width: 1014
Flags: W
HStem: -270 100<276 476 576 816> 1456 100<276 476 576 816>
VStem: 176 100<-170 1456> 476 100<-170 1456>
LayerCount: 2
Fore
SplineSet
276 1456 m 1
 276 -170 l 1
 476 -170 l 1
 476 1456 l 1
 276 1456 l 1
176 1556 m 1
 816 1556 l 1
 816 1456 l 1
 576 1456 l 1
 576 -170 l 1
 816 -170 l 1
 816 -270 l 1
 176 -270 l 1
 176 1556 l 1
EndSplineSet
EndChar

StartChar: bracketright
Encoding: 93 93 415
Width: 1014
Flags: W
HStem: -270 100<175 415 515 715> 1456 100<175 415 515 715>
VStem: 415 100<-170 1456> 715 100<-170 1456>
LayerCount: 2
Fore
SplineSet
715 1456 m 1
 515 1456 l 1
 515 -170 l 1
 715 -170 l 1
 715 1456 l 1
815 1556 m 1
 815 -270 l 1
 175 -270 l 1
 175 -170 l 1
 415 -170 l 1
 415 1456 l 1
 175 1456 l 1
 175 1556 l 1
 815 1556 l 1
EndSplineSet
EndChar

StartChar: braceleft
Encoding: 123 123 416
Width: 1503
Flags: W
HStem: -334 100<724.432 919 1010.78 1247> 541 143<256 491.437> 1456 100<724.116 917 1010.6 1247>
VStem: 568 100<-179.726 469.135 754.83 1402.57> 869 100<-192.125 1415.06>
LayerCount: 2
Fore
SplineSet
668 274 m 2
 668 35 l 2
 668 -66.3333 680.5 -135.167 705.5 -171.5 c 0
 730.5 -207.833 801.667 -228.333 919 -233 c 1
 885.665 -185.667 868.998 -109.667 869 -5 c 2
 869 1227 l 2
 869 1334.33 885 1410 917 1454 c 1
 799.667 1449.32 728.833 1429.16 704.5 1393.5 c 0
 680.165 1357.83 667.999 1289.33 668 1188 c 2
 668 948 l 2
 668 765.333 610.333 653.333 495 612 c 1
 610.333 566.667 668 454 668 274 c 2
318 684 m 2
 511.6 684 568 752.014 568 948 c 2
 568 1188 l 2
 568.001 1335.33 595.834 1433.5 651.5 1482.5 c 0
 707.167 1531.5 818 1556 984 1556 c 2
 1247 1556 l 1
 1247 1456 l 1
 1194 1456 l 2
 1004.94 1456 968.996 1416.79 969 1227 c 2
 969 -5 l 2
 969 -193.893 1005.42 -234 1194 -234 c 2
 1247 -234 l 1
 1247 -334 l 1
 984 -334 l 2
 818 -334 707.167 -309.333 651.5 -260 c 0
 595.833 -210.667 568 -112.333 568 35 c 2
 568 274 l 2
 568 471.646 512.554 541.002 318 541 c 2
 256 541 l 1
 256 684 l 1
 318 684 l 2
EndSplineSet
EndChar

StartChar: braceright
Encoding: 125 125 417
Width: 1503
Flags: W
HStem: -334 100<256 492.217 584 778.568> 541 143<1011.56 1247> 1456 100<256 492.398 586 778.885>
VStem: 534 100<-192.125 1415.06> 835 100<-179.726 469.132 754.827 1402.57>
LayerCount: 2
Fore
SplineSet
835 274 m 2
 835 454 892.667 566.667 1008 612 c 1
 892.666 653.333 835 765.333 835 948 c 2
 835 1188 l 2
 834.998 1289.33 822.832 1357.83 798.5 1393.5 c 0
 774.166 1429.17 703.333 1449.33 586 1454 c 1
 618 1410 634 1334.33 634 1227 c 2
 634 -5 l 2
 633.999 -109.667 617.332 -185.667 584 -233 c 1
 701.333 -228.333 772.5 -207.833 797.5 -171.5 c 0
 822.5 -135.167 835 -66.3333 835 35 c 2
 835 274 l 2
534 1227 m 2
 533.998 1416.79 498.065 1456 309 1456 c 2
 256 1456 l 1
 256 1556 l 1
 519 1556 l 2
 685 1556 795.833 1531.5 851.5 1482.5 c 0
 907.168 1433.5 935.001 1335.33 935 1188 c 2
 935 948 l 2
 935 752.009 991.391 683.997 1185 684 c 2
 1247 684 l 1
 1247 541 l 1
 1185 541 l 2
 990.456 541 935 471.638 935 274 c 2
 935 35 l 2
 935 -112.333 907.167 -210.667 851.5 -260 c 0
 795.833 -309.333 685 -334 519 -334 c 2
 256 -334 l 1
 256 -234 l 1
 309 -234 l 2
 497.578 -234 534 -193.897 534 -5 c 2
 534 1227 l 2
EndSplineSet
EndChar

StartChar: A
Encoding: 65 65 481
Width: 1517
Flags: W
HStem: 0 100<1150 1355> 417 100<324 892> 1393 100<656 861>
LayerCount: 2
Fore
SplineSet
861 1393 m 1
 656 1393 l 1
 1150 100 l 1
 1355 100 l 1
 861 1393 l 1
930 1493 m 1
 1500 0 l 1
 1080 0 l 1
 928 417 l 1
 288 417 l 1
 135 0 l 1
 16 0 l 1
 585 1493 l 1
 930 1493 l 1
609 1294 m 1
 324 517 l 1
 892 517 l 1
 609 1294 l 1
EndSplineSet
EndChar

StartChar: B
Encoding: 66 66 482
Width: 1497
Flags: W
HStem: 0 100<301 503 601 931.798> 745 100<601 881.616> 1393 100<301 503 601 883>
VStem: 201 100<100 1393> 503 98<100 745 845 1393> 883 105<865 1374> 945 105<130 715> 1196 100<971.375 1272.47> 1258 100<250.597 592.474>
LayerCount: 2
Fore
SplineSet
815 1493 m 2xf880
 1091.35 1493 1296.01 1384.29 1296 1124 c 0xf9
 1296 971.333 1232 864 1104 802 c 1
 1273.33 737.333 1358 609.333 1358 418 c 0
 1358 128.023 1140.05 0 835 0 c 2
 201 0 l 1
 201 1493 l 1
 815 1493 l 2xf880
601 745 m 1
 601 100 l 1
 835 100 l 2
 874.333 100 911 102.333 945 107 c 1
 945 738 l 1xfa
 910.999 742.684 874.332 745.017 835 745 c 2
 601 745 l 1
601 1393 m 1
 601 845 l 1
 815 845 l 1
 839 847 861.667 848 883 848 c 1
 883 1391 l 1xfc
 861.666 1392.38 838.999 1393.04 815 1393 c 2
 601 1393 l 1
301 1393 m 1
 301 100 l 1
 503 100 l 1
 503 1393 l 1
 301 1393 l 1
1050 130 m 1xfa80
 1188.67 175.333 1258 271.333 1258 418 c 0
 1258 570.667 1188.67 669.667 1050 715 c 1
 1050 130 l 1xfa80
988 865 m 1xfd
 1126.67 901 1196 987.334 1196 1124 c 0
 1196 1254.67 1126.67 1338 988 1374 c 1
 988 865 l 1xfd
EndSplineSet
EndChar

StartChar: D
Encoding: 68 68 483
Width: 1677
Flags: W
HStem: 0 100<333 535 635 1071.07> 1393 100<333 534 634 1071.35>
VStem: 232 101<100 1393> 535 100<100 1393> 1139 105<220 1273> 1467 120<460.398 1030.11>
LayerCount: 2
Fore
SplineSet
1587 748 m 0
 1587 210.621 1298.91 0 747 0 c 2
 232 0 l 1
 232 1493 l 1
 747 1493 l 2
 1299.62 1493 1587 1284.64 1587 748 c 0
634 1393 m 1
 635 100 l 1
 734 100 l 2
 897.333 100 1032.33 121.667 1139 165 c 1
 1139 1328 l 1
 1032.33 1371.34 897 1393 733 1393 c 2
 634 1393 l 1
333 1393 m 1
 333 100 l 1
 535 100 l 1
 534 1393 l 1
 333 1393 l 1
1244 220 m 1
 1392.67 319.333 1467 495.333 1467 748 c 0
 1467 994 1392.66 1169 1244 1273 c 1
 1244 220 l 1
EndSplineSet
EndChar

StartChar: E
Encoding: 69 69 484
Width: 1494
Flags: W
HStem: 0 100<301 503 603 1363> 753 100<603 1314> 1393 100<301 503 603 1345>
VStem: 201 100<100 1393> 503 100<100 753 853 1393>
LayerCount: 2
Fore
SplineSet
301 1393 m 1
 301 100 l 1
 503 100 l 1
 503 1393 l 1
 301 1393 l 1
201 1493 m 1
 1345 1493 l 1
 1345 1393 l 1
 603 1393 l 1
 603 853 l 1
 1314 853 l 1
 1314 753 l 1
 603 753 l 1
 603 100 l 1
 1363 100 l 1
 1363 0 l 1
 201 0 l 1
 201 1493 l 1
EndSplineSet
EndChar

StartChar: F
Encoding: 70 70 485
Width: 1379
Flags: W
HStem: 0 100<301 503> 753 100<603 1196> 1393 100<301 503 603 1260>
VStem: 201 100<100 1393> 503 100<100 753 853 1393>
LayerCount: 2
Fore
SplineSet
201 1493 m 1
 1260 1493 l 1
 1260 1393 l 1
 603 1393 l 1
 603 853 l 1
 1196 853 l 1
 1196 753 l 1
 603 753 l 1
 603 0 l 1
 201 0 l 1
 201 1493 l 1
503 1393 m 1
 301 1393 l 1
 301 100 l 1
 503 100 l 1
 503 1393 l 1
EndSplineSet
EndChar

StartChar: G
Encoding: 71 71 486
Width: 1587
Flags: W
HStem: -29 21G<623.434 976.38> 680 100<889 1319> 1420 100<596.984 1148.33>
VStem: 115 100<458.803 1031.67> 438 100<197 1294> 1319 100<167.875 680>
LayerCount: 2
Fore
SplineSet
860 1520 m 0
 1071.54 1520 1244.01 1463.75 1380 1378 c 1
 1380 1252 l 1
 1237.12 1361.13 1082.65 1420 860 1420 c 0
 735.333 1420 628 1398.66 538 1356 c 1
 538 135 l 1
 696.749 59.7412 944.787 52.9834 1132 109 c 0
 1199.33 129.667 1261.67 157.667 1319 193 c 1
 1319 680 l 1
 889 680 l 1
 889 780 l 1
 1419 780 l 1
 1419 139 l 1
 1275.92 37.499 1092.76 -29 860 -29 c 0
 386.869 -29 115 267.424 115 745 c 0
 115 1223.44 386.339 1520 860 1520 c 0
438 1294 m 1
 291.655 1179.01 215 996.016 215 745 c 0
 215 494.728 291.708 311.944 438 197 c 1
 438 1294 l 1
EndSplineSet
EndChar

StartChar: I
Encoding: 73 73 487
Width: 804
Flags: W
HStem: 0 100<102 202 302 504 602 702> 1393 100<102 202 302 504 602 702>
VStem: 202 100<100 1393> 504 98<100 1393>
LayerCount: 2
Fore
SplineSet
302 1393 m 1
 302 100 l 1
 504 100 l 1
 504 1393 l 1
 302 1393 l 1
102 1493 m 1
 702 1493 l 1
 702 1393 l 1
 602 1393 l 1
 602 100 l 1
 702 100 l 1
 702 0 l 1
 102 0 l 1
 102 100 l 1
 202 100 l 1
 202 1393 l 1
 102 1393 l 1
 102 1493 l 1
EndSplineSet
EndChar

StartChar: J
Encoding: 74 74 488
Width: 802
Flags: W
HStem: -410 100<-106 114.447> 1393 100<301 501>
VStem: 201 100<-217.155 1393> 501 100<-164.635 1393>
LayerCount: 2
Fore
SplineSet
301 1393 m 1
 301 34 l 2
 301 -127.333 272.333 -241.333 215 -308 c 1
 311 -301.333 380 -273.333 422 -224 c 0
 474.667 -161.333 501 -52 501 104 c 2
 501 1393 l 1
 301 1393 l 1
-43 -310 m 2
 161.387 -310 201 -191.747 201 34 c 2
 201 1493 l 1
 601 1493 l 1
 601 104 l 2
 600.998 -233.206 492.273 -410 169 -410 c 2
 -106 -410 l 1
 -106 -310 l 1
 -43 -310 l 2
EndSplineSet
EndChar

StartChar: K
Encoding: 75 75 489
Width: 1541
Flags: W
HStem: 0 100<301 503> 1393 100<301 503>
VStem: 201 100<100 1393> 503 98<100 719 862 1393>
LayerCount: 2
Fore
SplineSet
201 1493 m 1
 601 1493 l 1
 601 862 l 1
 1372 1493 l 1
 1531 1493 l 1
 670 789 l 1
 1584 0 l 1
 1431 0 l 1
 601 719 l 1
 601 0 l 1
 201 0 l 1
 201 1493 l 1
301 1393 m 1
 301 100 l 1
 503 100 l 1
 503 1393 l 1
 301 1393 l 1
EndSplineSet
EndChar

StartChar: L
Encoding: 76 76 490
Width: 1341
Flags: W
HStem: 0 100<301 503 603 1330> 1391 102<301 503>
VStem: 201 100<98 1391> 503 100<100 1391>
LayerCount: 2
Fore
SplineSet
201 1493 m 1
 603 1493 l 1
 603 100 l 1
 1330 100 l 1
 1330 0 l 1
 201 0 l 1
 201 1493 l 1
301 1391 m 1
 301 98 l 1
 503 98 l 1
 503 1391 l 1
 301 1391 l 1
EndSplineSet
EndChar

StartChar: M
Encoding: 77 77 491
Width: 2099
Flags: W
HStem: 0 100<296 498 1601 1803> 1393 100<296 498 1601 1803>
VStem: 196 100<100 1393> 498 100<100 1393> 1501 100<100 1393> 1803 100<100 1393>
LayerCount: 2
Fore
SplineSet
1501 0 m 1
 1501 1393 l 1
 1084 287 l 25
 1013 287 l 25
 599 1393 l 1
 598 0 l 1
 196 0 l 1
 196 1493 l 1
 668 1493 l 1
 1049 477 l 1
 1432 1493 l 1
 1903 1493 l 1
 1903 0 l 1
 1501 0 l 1
1601 1393 m 1
 1601 100 l 1
 1803 100 l 1
 1803 1393 l 1
 1601 1393 l 1
296 1393 m 1
 296 100 l 1
 498 100 l 1
 498 1393 l 1
 296 1393 l 1
EndSplineSet
EndChar

StartChar: O
Encoding: 79 79 492
Width: 1612
Flags: W
HStem: -29 105<577.447 1034.31> 1415 105<579.478 1032.11>
VStem: 114 120<455.127 1035.87> 457 105<191 1299> 1050 105<193 1298> 1376 122<457.707 1033.3>
LayerCount: 2
Fore
SplineSet
114 745 m 0
 114 1193.4 367.961 1520 806 1520 c 0
 1242.93 1520 1498 1190.72 1498 745 c 24
 1498 511 1435 323.333 1309 182 c 24
 1183 41.3333 1015.33 -29 806 -29 c 24
 596 -29 428.333 41.3333 303 182 c 0
 177 322 114 509.667 114 745 c 0
562 126 m 1
 634 92.6667 715.334 76 806 76 c 0
 896.667 76 978 92.6667 1050 126 c 1
 1050 1365 l 1
 978 1398.34 896.667 1415.01 806 1415 c 0
 715.333 1415 634 1398.33 562 1365 c 1
 562 126 l 1
457 1299 m 1
 312 1182.19 234 989.549 234 745 c 0
 234 498.072 313.305 310.747 457 191 c 1
 457 1299 l 1
1155 193 m 1
 1298.05 311.525 1376 501.441 1376 745.5 c 0
 1376 989.612 1298.14 1179.41 1155 1298 c 1
 1155 193 l 1
114 745 m 24
EndSplineSet
EndChar

StartChar: S
Encoding: 83 83 493
Width: 1300
Flags: W
HStem: -36 77<351.897 749.665> 1449 77<549.986 925.033>
VStem: 136 100<882.19 1249.16> 313 100<1036.91 1320.29> 892 100<157.754 484.953> 1083 100<236.783 629.636>
LayerCount: 2
Fore
SplineSet
336 1325 m 1
 269.333 1264.33 236 1182.33 236 1079 c 0
 236 975.666 258.667 898.333 304 847 c 0
 349.333 795.666 429.333 756.333 544 729 c 2
 655 703 l 2
 841.506 659.96 992 555.884 992 350.5 c 0
 991.998 264.833 979.331 196 954 144 c 1
 1040 202.667 1083 291.333 1083 410 c 0
 1083 662.482 970.378 765.049 757 814 c 1
 647 841 l 1
 529.666 867 444.666 906.167 392 958.5 c 0
 339.333 1010.83 313 1074.83 313 1150.5 c 0
 313.001 1226.17 320.668 1284.33 336 1325 c 1
136 1084 m 24
 136 1361.02 355.868 1526.01 641 1526 c 0
 792.333 1526 944 1498.66 1096 1444 c 9
 1096 1332 l 17
 958.666 1410 837.5 1449 732.5 1449 c 0
 545.72 1448.99 413 1369.66 413 1195.5 c 0
 413.001 1117.83 431.167 1061.5 467.5 1026.5 c 0
 503.834 991.5 571.334 962 670 938 c 2
 780 911 l 2
 1031.51 848.745 1183 715.624 1183 414 c 0
 1183 115.597 956.577 -36 648.5 -36 c 0
 484.167 -36 315 -2 141 66 c 1
 141 190 l 1
 289.667 90.6667 423.833 41 543.5 41 c 0
 753.48 41 892 120.586 892 313.5 c 0
 892 501.586 796.515 567.852 632 606 c 2
 521 632 l 2
 386.333 663.333 288.5 713.5 227.5 782.5 c 0
 166.5 851.5 136 952 136 1084 c 24
EndSplineSet
EndChar

StartChar: T
Encoding: 84 84 494
Width: 1450
Flags: W
HStem: 0 100<626 826> 1393 100<-6 526 626 826 926 1456>
VStem: 526 100<100 1393> 826 100<100 1393>
LayerCount: 2
Fore
SplineSet
626 1393 m 1
 626 100 l 1
 826 100 l 1
 826 1393 l 1
 626 1393 l 1
-6 1493 m 1
 1456 1493 l 1
 1456 1393 l 1
 926 1393 l 1
 926 0 l 1
 526 0 l 1
 526 1393 l 1
 -6 1393 l 1
 -6 1493 l 1
EndSplineSet
EndChar

StartChar: U
Encoding: 85 85 495
Width: 1700
Flags: W
HStem: -29 100<699.197 1000.79> 1393 100<277 478 1222 1423>
VStem: 177 100<324.85 1393> 478 100<216.739 1393> 1122 100<217.336 1393> 1423 100<324.874 1393>
LayerCount: 2
Fore
SplineSet
1222 1393 m 1
 1222 522 l 2
 1222 334 1192.66 196.667 1134 110 c 1
 1326.67 175.333 1423 325.667 1423 561 c 2
 1423 1393 l 1
 1222 1393 l 1
277 1393 m 1
 277 561 l 2
 277 325 373.333 175 566 111 c 1
 506.667 193.667 477.333 330.667 478 522 c 2
 478 1393 l 1
 277 1393 l 1
850 -29 m 24
 428.486 -29 177 152.044 177 561 c 2
 177 1493 l 1
 578 1493 l 1
 578 522 l 2
 578.001 362 599.334 246.833 642 176.5 c 0
 684.667 106.167 754 71 850 71 c 24
 946 71 1015.33 106.167 1058 176.5 c 0
 1100.67 246.833 1122 362 1122 522 c 2
 1122 1493 l 1
 1523 1493 l 1
 1523 561 l 2
 1523 152.103 1271.43 -29 850 -29 c 24
EndSplineSet
EndChar

StartChar: V
Encoding: 86 86 496
Width: 1480
Flags: W
HStem: 0 100<648 848> 1393 100<154 354>
LayerCount: 2
Fore
SplineSet
154 1393 m 1
 648 100 l 9
 848 100 l 17
 354 1393 l 1
 154 1393 l 1
16 1493 m 1
 416 1493 l 1
 889 236 l 1
 1363 1493 l 1
 1463 1493 l 1
 894 0 l 1
 586 0 l 1
 16 1493 l 1
EndSplineSet
EndChar

StartChar: W
Encoding: 87 87 497
Width: 2269
Flags: W
HStem: 0 100<517 717 1544 1744> 1393 100<193 393 1220 1420>
LayerCount: 2
Fore
SplineSet
1220 1393 m 17
 1544 100 l 1
 1744 100 l 1
 1420 1393 l 9
 1220 1393 l 17
193 1393 m 17
 517 100 l 1
 717 100 l 1
 393 1393 l 9
 193 1393 l 17
68 1493 m 1
 468 1493 l 1
 782 231 l 1
 1095 1493 l 1
 1495 1493 l 1
 1809 231 l 1
 2122 1493 l 1
 2222 1493 l 1
 1847 0 l 1
 1459 0 l 1
 1144 1296 l 1
 826 0 l 1
 442 0 l 1
 68 1493 l 1
EndSplineSet
EndChar

StartChar: X
Encoding: 88 88 498
Width: 1650
Flags: W
HStem: 0 100<1156 1354> 1393 100<296 494>
LayerCount: 2
Fore
SplineSet
296 1393 m 1
 1156 100 l 1
 1354 100 l 1
 494 1393 l 1
 296 1393 l 1
108 1493 m 1
 548 1493 l 1
 922 931 l 1
 1310 1493 l 1
 1408 1493 l 1
 972 857 l 1
 1542 0 l 1
 1102 0 l 1
 728 562 l 1
 340 0 l 1
 240 0 l 1
 678 635 l 1
 108 1493 l 1
EndSplineSet
EndChar

StartChar: Y
Encoding: 89 89 499
Width: 1448
Flags: W
HStem: 0 100<624 826> 1393 100<164 364>
VStem: 524 100<100 711> 826 98<100 711>
LayerCount: 2
Fore
SplineSet
878 787 m 1
 1352 1493 l 1
 1452 1493 l 1
 924 711 l 1
 924 0 l 1
 524 0 l 1
 524 711 l 1
 -4 1493 l 1
 400 1493 l 1
 878 787 l 1
826 711 m 1
 364 1393 l 1
 164 1393 l 1
 624 711 l 1
 624 100 l 1
 826 100 l 1
 826 711 l 1
EndSplineSet
EndChar

StartChar: a
Encoding: 97 97 500
Width: 1355
Flags: W
HStem: -29 101<328.415 426 526 670.506> 0 100<935 1071> 607 100<527.471 835> 1045 102<318.356 746.441>
VStem: 123 100<169.988 494.111> 426 100<77 586> 835 100<100 170 246.156 607 707 957.835> 1071 100<100 868.56>
LayerCount: 2
Fore
SplineSet
1071 639 m 2x7f
 1071 779.667 1046 872.334 996 917 c 0
 946 961.668 900.667 992.001 860 1008 c 1
 910 946 935 869.667 935 779 c 2
 935 100 l 1
 1071 100 l 1
 1071 639 l 2x7f
603 1147 m 0
 968.327 1147 1171 994.995 1171 639 c 2
 1171 0 l 1
 835 0 l 1x7f
 835 170 l 1
 769.173 63.4237 648.107 -29 498 -29 c 0xbf
 274.818 -29 123 105.71 123 326 c 0
 123 605.624 328.099 707 627 707 c 2
 835 707 l 1
 835 779 l 2
 835 960.447 757.307 1045 567 1045 c 0
 422.521 1045 305.008 1007.77 205 953 c 1
 205 1069 l 1
 319.327 1106.47 478.872 1147 603 1147 c 0
835 522 m 2
 835 607 l 1
 627 607 l 2
 590.999 607 557.333 605.667 526 603 c 1
 526 72 l 1xbf
 588.667 74.6667 636.334 89 669 115 c 0
 701.667 141 737.667 178 777 226 c 0
 815.668 273.333 835.002 372 835 522 c 2
426 77 m 1
 426 586 l 1
 381.333 573.999 336.333 550.833 291 516.5 c 0
 245.667 482.167 223 418.667 223 326 c 0
 223 178.182 306.851 97.5936 426 77 c 1
EndSplineSet
EndChar

StartChar: b
Encoding: 98 98 501
Width: 1450
Flags: W
HStem: -29 100<670.866 884.117> 0 92<248 382> 1047 100<661.53 882> 1456 100<248 382>
VStem: 148 100<92 1456> 382 100<92 168 289.435 821.203 950 1456> 887 105<108 1010> 1190 109<294.127 824.739>
LayerCount: 2
Fore
SplineSet
841 -29 m 0xbf
 659.569 -29 552.483 46.4774 482 168 c 1
 482 0 l 1
 148 0 l 1x7f
 148 1556 l 1
 482 1556 l 1
 482 950 l 1
 552.519 1071.58 659.489 1147.01 841 1147 c 0
 1139.05 1147 1299 873.637 1299 559 c 0
 1299 244.21 1139.17 -29 841 -29 c 0xbf
1190 628 m 0
 1190 782.278 1109.28 947.45 992 1010 c 1
 992 108 l 1
 1089.7 160.105 1150.43 266.547 1175 395 c 0
 1185 445 1190 522.667 1190 628 c 0
248 1456 m 1
 248 92 l 1
 382 92 l 1
 382 1456 l 1
 248 1456 l 1
887 1044 m 1
 870.333 1046 853.333 1047 836 1047 c 0
 726 1047 646 1012 596 942 c 1
 544.666 872.666 511.666 799.333 497 722 c 0
 487.667 672.666 483 595.333 483 490 c 0
 483 384 514.667 287.667 578 201 c 1
 640 114.333 726 71 836 71 c 0xbf
 853.333 71 870.333 72 887 74 c 1
 887 1044 l 1
EndSplineSet
EndChar

StartChar: c
Encoding: 99 99 502
Width: 1126
Flags: W
HStem: -29 100<526.966 925.126> 1047 100<519.516 932.963>
VStem: 113 100<321.733 797.287> 416 100<133 984>
LayerCount: 2
Fore
SplineSet
664 71 m 0
 800.668 71 890.942 100.914 999 143 c 1
 999 43 l 1
 903.252 -1.76517 798.262 -29 664 -29 c 0
 319.256 -29 113 209.421 113 559 c 0
 113 916.932 321.557 1147 676 1147 c 0
 802.181 1146.98 907.221 1119.27 999 1077 c 1
 999 977 l 1
 924.608 1010.43 794.026 1047 676 1047 c 0
 617.333 1047 564 1040.33 516 1027 c 1
 516 90 l 1
 560.667 77.3333 610 71 664 71 c 0
416 984 m 1
 284.241 906.143 213 760.227 213 559 c 0
 213 360.613 284.775 211.735 416 133 c 1
 416 984 l 1
EndSplineSet
EndChar

StartChar: d
Encoding: 100 100 503
Width: 1450
Flags: W
HStem: -29 100<562.891 776.148> 0 92<1065 1199> 1047 100<562.883 786.151> 1456 100<1065 1199>
VStem: 148 109<295.762 822.305> 455 105<108 1010> 965 100<92 168 289.435 821.203 950 1456> 1199 100<92 1456>
LayerCount: 2
Fore
SplineSet
606 1147 m 0xbf
 787.431 1147 894.518 1071.52 965 950 c 1
 965 1556 l 1
 1299 1556 l 1
 1299 0 l 1
 965 0 l 1x7f
 965 168 l 1
 894.48 46.413 787.516 -29 606 -29 c 0
 307.953 -29 148 244.363 148 559 c 0
 148 873.79 307.829 1147 606 1147 c 0xbf
455 1010 m 1
 337.74 947.462 257 782.21 257 628 c 0
 257 522.667 262 445 272 395 c 0
 296.585 266.489 357.251 160.133 455 108 c 1
 455 1010 l 1
1065 1456 m 1
 1065 92 l 1
 1199 92 l 1
 1199 1456 l 1
 1065 1456 l 1
560 1044 m 1
 560 74 l 1
 576.667 72 593.667 71 611 71 c 0xbf
 721 71 807 114.333 869 201 c 1
 932.333 287.667 964 384 964 490 c 0
 963.989 595.333 959.322 672.667 950 722 c 0
 935.333 799.333 902.333 872.667 851 942 c 1
 801 1012 721 1047 611 1047 c 0
 593.667 1047 576.667 1046 560 1044 c 1
EndSplineSet
EndChar

StartChar: e
Encoding: 101 101 504
Width: 1260
Flags: W
HStem: -29 110<529.361 978.42> 516 100<521 1034> 1037 110<522.285 837.32>
VStem: 111 107<336.13 791.341> 416 105<149 516 616 975> 1034 115<616 819.56>
LayerCount: 2
Fore
SplineSet
660 1147 m 0
 973.411 1147 1149 924.221 1149 606 c 2
 1149 516 l 1
 520 516 l 1
 521 102 l 1
 571 88 627.667 81 691 81 c 0
 835.667 81 973 112 1103 174 c 1
 1103 57 l 1
 973.123 3.38103 859.221 -29 692 -29 c 0
 336.882 -29 111 194.493 111 549 c 0
 111 901.957 313.635 1147 660 1147 c 0
416 975 m 1
 284 893.667 218 755.333 218 560 c 0
 218.667 380.667 284.667 243.667 416 149 c 1
 416 975 l 1
1034 616 m 1
 1030.23 855.026 894.18 1037 658 1037 c 0
 608.667 1037 562.667 1031.33 520 1020 c 1
 521 616 l 1
 1034 616 l 1
EndSplineSet
EndChar

StartChar: f
Encoding: 102 102 505
Width: 953
Flags: W
HStem: 0 100<323 458> 998 100<47 223 558 946> 1456 100<628.112 995>
VStem: 223 100<100 998 1098 1384.58> 458 100<100 998 1098 1383.78>
LayerCount: 2
Fore
SplineSet
458 1198 m 2
 458 1308.05 480.192 1395.74 529 1454 c 1
 374.086 1438.94 323 1373.21 323 1198 c 2
 323 100 l 1
 458 100 l 1
 458 1198 l 2
223 1198 m 2
 223 1449.32 335.865 1556.01 586 1556 c 2
 995 1556 l 1
 995 1456 l 1
 821 1456 l 2
 624.651 1456 558 1394.69 558 1198 c 2
 558 1098 l 1
 946 1098 l 1
 946 998 l 1
 558 998 l 1
 558 0 l 1
 223 0 l 1
 223 998 l 1
 47 998 l 1
 47 1098 l 1
 223 1098 l 1
 223 1198 l 2
EndSplineSet
EndChar

StartChar: g
Encoding: 103 103 506
Width: 1450
Flags: W
HStem: -426 101<336.726 767.782> -29 100<527.891 751.164> 1018 100<1030 1164> 1047 100<529.984 739.552>
VStem: 113 109<293.261 823.873> 420 105<108 1010> 930 100<-159.633 168 296.797 828.565 950 1018> 1164 100<-114.607 1018>
LayerCount: 2
Fore
SplineSet
1030 1018 m 1xef
 1030 55 l 2
 1030 -79.6667 994.667 -193.667 924 -287 c 1
 927.333 -290.333 968.167 -265.833 1046.5 -213.5 c 0
 1124.84 -161.167 1164 -43.6667 1164 139 c 2
 1164 1018 l 1
 1030 1018 l 1xef
659 -426 m 0
 500.808 -426 370.854 -405.796 248 -367 c 1
 248 -239 l 1
 341.454 -289.765 438.753 -325 569 -325 c 0
 815.348 -325 930 -194.472 930 55 c 2
 930 168 l 1
 859.48 46.413 752.516 -29 571 -29 c 0
 272.953 -29 113 244.363 113 559 c 0
 113 873.79 272.829 1147 571 1147 c 0xdf
 752.431 1147 859.518 1071.52 930 950 c 1
 930 1118 l 1
 1264 1118 l 1
 1264 139 l 2
 1264 -252.883 1057.49 -426 659 -426 c 0
222 490 m 0
 222 335.723 302.719 170.55 420 108 c 1
 420 1010 l 1
 322.301 957.894 261.574 851.454 237 723 c 0
 227 673 222 595.333 222 490 c 0
525 74 m 1
 541.667 72 558.667 71 576 71 c 0
 686 71 766 106 816 176 c 1
 867.333 245.333 900.333 318.667 915 396 c 0
 924.333 445.333 929 522.667 929 628 c 0
 928.999 734 897.332 830.333 834 917 c 1
 772 1003.67 686 1047 576 1047 c 0
 558.667 1047 541.667 1046 525 1044 c 1
 525 74 l 1
EndSplineSet
EndChar

StartChar: h
Encoding: 104 104 507
Width: 1509
Flags: W
HStem: 0 100<286 421 1112 1252> 1037 110<706.223 929.53> 1456 100<286 421>
VStem: 186 100<100 1456> 421 100<100 888.609 946 1456> 1012 100<100 940.975> 1252 100<100 896.891>
LayerCount: 2
Fore
SplineSet
1024 1037 m 1
 1083.43 964.456 1112 861.153 1112 720 c 2
 1112 100 l 1
 1252 100 l 1
 1252 676 l 2
 1252 880.269 1187.19 1003.3 1024 1037 c 1
286 1456 m 1
 286 100 l 1
 421 100 l 1
 421 1456 l 1
 286 1456 l 1
1012 720 m 2
 1012 900.931 962.49 1037 798 1037 c 0
 611.099 1037 521 880.08 521 683 c 2
 521 0 l 1
 186 0 l 1
 186 1556 l 1
 521 1556 l 1
 521 946 l 1
 607.784 1066.07 728.089 1147.01 921 1147 c 0
 1213.32 1147 1352 974.426 1352 676 c 2
 1352 0 l 1
 1012 0 l 1
 1012 720 l 2
EndSplineSet
EndChar

StartChar: i
Encoding: 105 105 508
Width: 719
Flags: W
HStem: 0 100<330 465> 1020 100<330 465> 1323 233<305 490>
VStem: 230 100<100 1020> 305 185<1323 1556> 465 100<100 1020>
LayerCount: 2
Fore
SplineSet
330 1020 m 1xf4
 330 100 l 1
 465 100 l 1
 465 1020 l 1
 330 1020 l 1xf4
305 1556 m 1xe8
 490 1556 l 1
 490 1323 l 1
 305 1323 l 1
 305 1556 l 1xe8
230 1120 m 1xf4
 565 1120 l 1
 565 0 l 9
 230 0 l 1
 230 1120 l 1xf4
EndSplineSet
EndChar

StartChar: j
Encoding: 106 106 509
Width: 719
Flags: W
HStem: -426 100<-41 149.68> 1020 100<289 424> 1323 233<264 448>
VStem: 189 100<-285.26 1020> 264 184<1323 1556> 424 100<-230.871 1020>
LayerCount: 2
Fore
SplineSet
252 -317 m 1xf4
 379.981 -289.962 424 -188.459 424 -22 c 10
 424 1020 l 17
 289 1020 l 1
 289 -52 l 2
 289 -172.667 276.666 -261 252 -317 c 1xf4
524 -20 m 2
 524 -288.512 437.434 -426 180 -426 c 10
 -41 -426 l 17
 -41 -326 l 1
 8 -326 l 2
 80 -326 128 -310 152 -278 c 0
 176.667 -245.333 189 -178 189 -76 c 2
 189 1120 l 1
 524 1120 l 1
 524 -20 l 2
264 1556 m 1xe8
 448 1556 l 1
 448 1323 l 1
 264 1323 l 1
 264 1556 l 1xe8
EndSplineSet
EndChar

StartChar: k
Encoding: 107 107 510
Width: 1333
Flags: W
HStem: 0 100<286 421> 1100 20G<1138.33 1305> 1456 100<286 421>
VStem: 186 100<100 1456> 421 100<100 547 637 1456>
LayerCount: 2
Fore
SplineSet
186 1556 m 1
 521 1556 l 1
 521 637 l 1
 1165 1120 l 1
 1305 1120 l 1
 609 598 l 1
 1330 0 l 1
 1180 0 l 1
 521 547 l 1
 521 0 l 1
 186 0 l 1
 186 1556 l 1
286 1456 m 1
 286 100 l 1
 421 100 l 1
 421 1456 l 1
 286 1456 l 1
EndSplineSet
EndChar

StartChar: l
Encoding: 108 108 511
Width: 719
Flags: W
HStem: 0 100<605.44 746> 1446 110<330 465>
VStem: 230 100<195.117 1446> 465 100<140.74 1446>
LayerCount: 2
Fore
SplineSet
330 404 m 18
 330 237.506 374.008 136.04 502 109 c 1
 477.333 165 465 253.333 465 374 c 2
 465 1446 l 1
 330 1446 l 9
 330 404 l 18
575 0 m 18
 316.706 0 230 136.982 230 406 c 2
 230 1556 l 1
 565 1556 l 1
 565 350 l 2
 565 246 577.667 178.333 603 147 c 0
 628.333 115.667 676 100 746 100 c 1
 746 0 l 9
 575 0 l 18
EndSplineSet
EndChar

StartChar: m
Encoding: 109 109 512
Width: 2338
Flags: W
HStem: 0 100<286 421 1112 1252 1943 2083> 1020 100<286 421> 1037 110<706.223 929.53 1540.1 1760.53>
VStem: 186 100<100 1020> 421 100<100 888.609 946 1020> 1012 100<100 940.975> 1252 100<100 890.544> 1843 100<100 940.975> 2083 100<100 896.891>
LayerCount: 2
Fore
SplineSet
1012 720 m 2xbf80
 1012 900.931 962.49 1037 798 1037 c 0xbf80
 611.099 1037 521 880.08 521 683 c 2
 521 0 l 1
 186 0 l 1
 186 1120 l 1
 521 1120 l 1xdf80
 521 946 l 1
 607.784 1066.07 728.089 1147.01 921 1147 c 0
 1062.33 1147 1159.17 1118.33 1211.5 1061 c 0
 1263.84 1003.67 1299 950.333 1317 901 c 1
 1410.06 1042.8 1542.87 1147.01 1752 1147 c 0
 2044.32 1147 2183 974.426 2183 676 c 2
 2183 0 l 1
 1843 0 l 1
 1843 720 l 2
 1842.99 900.931 1793.5 1037 1629 1037 c 0
 1439.06 1037 1352 878.529 1352 676 c 2
 1352 0 l 1
 1012 0 l 1
 1012 720 l 2xbf80
286 1020 m 1xdf80
 286 100 l 1
 421 100 l 1
 421 1020 l 1
 286 1020 l 1xdf80
1024 1037 m 1xbf80
 1083.43 964.456 1112 861.153 1112 720 c 2
 1112 100 l 1
 1252 100 l 1
 1252 676 l 2
 1252 880.269 1187.19 1003.3 1024 1037 c 1xbf80
1855 1037 m 1
 1914.46 964.501 1943 861.118 1943 720 c 2
 1943 100 l 1
 2083 100 l 1
 2083 676 l 2
 2082.99 880.27 2018.2 1003.3 1855 1037 c 1
EndSplineSet
EndChar

StartChar: n
Encoding: 110 110 513
Width: 1509
Flags: W
HStem: 0 100<286 421 1112 1252> 1020 100<286 421> 1037 110<706.223 929.53>
VStem: 186 100<100 1020> 421 100<100 888.609 946 1020> 1012 100<100 940.975> 1252 100<100 896.891>
LayerCount: 2
Fore
SplineSet
1024 1037 m 1xbe
 1083.43 964.456 1112 861.153 1112 720 c 2
 1112 100 l 1
 1252 100 l 1
 1252 676 l 2
 1252 880.269 1187.19 1003.3 1024 1037 c 1xbe
286 1020 m 1xde
 286 100 l 1
 421 100 l 1
 421 1020 l 1
 286 1020 l 1xde
1012 720 m 2
 1012 900.931 962.49 1037 798 1037 c 0xbe
 611.099 1037 521 880.08 521 683 c 2
 521 0 l 1
 186 0 l 1
 186 1120 l 1
 521 1120 l 1xde
 521 946 l 1
 607.784 1066.07 728.089 1147.01 921 1147 c 0xbe
 1213.32 1147 1352 974.426 1352 676 c 2
 1352 0 l 1
 1012 0 l 1
 1012 720 l 2
EndSplineSet
EndChar

StartChar: o
Encoding: 111 111 514
Width: 1253
Flags: W
HStem: -29 100<519.889 734.003> 1047 100<522.041 731.714>
VStem: 113 100<304.941 813.256> 416 100<119 999> 738 100<120 998> 1041 100<307.723 810.604>
LayerCount: 2
Fore
SplineSet
113 559 m 0
 113 906.77 289.443 1147 627 1147 c 0
 963.618 1147 1141 906.13 1141 559 c 0
 1141 212.631 963.186 -29 627 -29 c 0
 289.987 -29 113 212.167 113 559 c 0
516 82 m 1
 550 74.6667 587 71 627 71 c 0
 667 71.0001 704 74.6668 738 82 c 1
 738 1036 l 1
 704 1043.35 667 1047.02 627 1047 c 0
 587 1047 550 1043.33 516 1036 c 1
 516 82 l 1
416 999 m 1
 279.963 923.13 213 770.148 213 559 c 0
 213 347.825 279.945 194.877 416 119 c 1
 416 999 l 1
838 120 m 1
 974.354 194.859 1041 349.527 1041 559.5 c 0
 1041 769.771 974.221 923.216 838 998 c 1
 838 120 l 1
EndSplineSet
EndChar

StartChar: p
Encoding: 112 112 515
Width: 1450
Flags: W
HStem: -426 100<213 347> -29 100<625.849 849.117> 1026 92<213 347> 1047 100<637.422 847>
VStem: 113 100<-326 1026> 347 100<-326 168 296.797 828.565 950 1026> 852 105<108 1010> 1155 109<293.24 823.849>
LayerCount: 2
Fore
SplineSet
806 -29 m 0xdf
 624.569 -29 517.483 46.4774 447 168 c 1
 447 -426 l 1
 113 -426 l 1
 113 1118 l 1
 447 1118 l 1xef
 447 950 l 1
 517.518 1071.58 624.489 1147.01 806 1147 c 0
 1104.05 1147 1264 873.637 1264 559 c 0
 1264 244.21 1104.17 -29 806 -29 c 0xdf
957 108 m 1
 1074.26 170.538 1155 335.79 1155 490 c 0
 1155 595.333 1150 673 1140 723 c 0
 1115.41 851.512 1054.75 957.866 957 1010 c 1
 957 108 l 1
347 -326 m 1
 347 1026 l 1
 213 1026 l 1
 213 -326 l 1
 347 -326 l 1
852 74 m 1
 852 1044 l 1
 835.333 1046 818.333 1047 801 1047 c 0xdf
 691 1047 605 1003.67 543 917 c 1
 479.667 830.333 448 734 448 628 c 0
 448.002 522.667 452.668 445.333 462 396 c 0
 476.667 318.667 509.667 245.333 561 176 c 1
 611 106 691 71 801 71 c 0
 818.333 71 835.333 72 852 74 c 1
EndSplineSet
EndChar

StartChar: q
Encoding: 113 113 516
Width: 1450
Flags: W
HStem: -426 100<1030 1164> -29 100<527.891 751.164> 1026 92<1030 1164> 1047 100<529.984 739.552>
VStem: 113 109<293.261 823.873> 420 105<108 1010> 930 100<-326 168 296.797 828.565 950 1026> 1164 100<-326 1026>
LayerCount: 2
Fore
SplineSet
571 1147 m 0xdf
 752.431 1147 859.518 1071.52 930 950 c 1
 930 1118 l 1
 1264 1118 l 1xef
 1264 -426 l 1
 930 -426 l 1
 930 168 l 1
 859.48 46.413 752.516 -29 571 -29 c 0
 272.953 -29 113 244.363 113 559 c 0
 113 873.79 272.829 1147 571 1147 c 0xdf
222 490 m 0
 222 335.723 302.719 170.55 420 108 c 1
 420 1010 l 1
 322.301 957.894 261.574 851.454 237 723 c 0
 227 673 222 595.333 222 490 c 0
1030 -326 m 1
 1164 -326 l 1
 1164 1026 l 1
 1030 1026 l 1
 1030 -326 l 1
525 74 m 1
 541.667 72 558.667 71 576 71 c 0
 686 71 766 106 816 176 c 1
 867.333 245.333 900.333 318.667 915 396 c 0
 924.333 445.333 929 522.667 929 628 c 0
 928.999 734 897.332 830.333 834 917 c 1
 772 1003.67 686 1047 576 1047 c 0xdf
 558.667 1047 541.667 1046 525 1044 c 1
 525 74 l 1
EndSplineSet
EndChar

StartChar: r
Encoding: 114 114 517
Width: 991
Flags: W
HStem: 0 100<286 420> 1020 100<286 420> 1039 108<682.508 989.658>
VStem: 186 100<100 1020> 420 100<100 873.088 946 1020>
LayerCount: 2
Fore
SplineSet
286 1020 m 1xd8
 286 100 l 1
 420 100 l 1
 420 1020 l 1
 286 1020 l 1xd8
843 1039 m 0xb8
 619.377 1039 520 879.792 520 646 c 2
 520 0 l 1
 186 0 l 1
 186 1120 l 1
 520 1120 l 1xd8
 520 946 l 1
 592.049 1072.71 706.534 1147 897 1147 c 0
 915 1147 929 1146 939 1144 c 2
 991 1137 l 25
 991 1004 l 1
 951.199 1027.11 904.351 1039 843 1039 c 0xb8
EndSplineSet
EndChar

StartChar: s
Encoding: 115 115 518
Width: 1067
Flags: W
HStem: -29 102<233.298 586.259> 1047 100<480.284 838.864>
VStem: 119 100<651.513 944.755> 323 100<763.474 992.329> 653 100<131.293 368.256> 867 100<195.274 484.392>
LayerCount: 2
Fore
SplineSet
716 107 m 1
 803.329 144.764 867.001 218.637 867 327 c 0
 867 399 852.667 452 824 486 c 0
 793.333 522.667 734 554 646 580 c 2
 595 595 l 2
 499 623.001 432 655.334 394 692 c 0
 346.667 736.667 323 796.001 323 870 c 0
 323 926 335.667 975 361 1017 c 1
 273.313 983.268 219 912.75 219 800 c 0
 219 732 231.667 682 257 650 c 0
 283 616 333.667 587.667 409 565 c 2
 461 549 l 2
 571 515 646.334 478.333 687 439 c 0
 731 396.333 753 334 753 252 c 0
 753 197.333 740.667 149 716 107 c 1
504 -29 m 0
 356.993 -29 233.637 2.98541 111 45 c 9
 112 184 l 17
 202.762 123.857 302.253 72.9999 434 73 c 0
 563.37 73 653.004 128.924 653 252 c 0
 652.999 304 640.332 343.167 615 369.5 c 0
 589.667 395.834 528.667 423.667 432 453 c 2
 380 469 l 2
 210.057 521.29 119 595.447 119 800 c 24
 119 1039.69 297.529 1147 549 1147 c 0
 687.36 1146.98 807.745 1124.48 907 1084 c 1
 907 962 l 1
 857.667 994.668 817.667 1017 787 1029 c 0
 756.333 1041 709.333 1047 646 1047 c 0
 510.977 1046.99 423 997.888 423 870 c 0
 423 824.666 436.333 789.333 463 764 c 0
 489.667 738.666 543 714.333 623 691 c 2
 674 676 l 2
 781.333 644.667 857 602.667 901 550 c 0
 945 497.333 967 423 967 327 c 0
 966.998 85.0416 760.863 -29 504 -29 c 0
EndSplineSet
EndChar

StartChar: t
Encoding: 116 116 519
Width: 953
Flags: W
HStem: 0 100<558.414 904> 998 100<55 190 525 904> 1338 100<290 425>
VStem: 55 235<998 1098> 190 100<158.099 998 1098 1338> 425 100<133.515 998 1098 1338>
LayerCount: 2
Fore
SplineSet
464 106 m 1xec
 436 162.667 423 232.333 425 315 c 1
 425 1338 l 1
 290 1338 l 1
 290 369 l 2
 289.333 253.667 304.333 183 335 157 c 0
 365.667 131 408.667 114 464 106 c 1xec
565 0 m 2
 281.169 0 190 86.189 190 369 c 2
 190 998 l 1xec
 55 998 l 1
 55 1098 l 1xf4
 190 1098 l 1
 190 1438 l 1
 525 1438 l 1
 525 1098 l 1
 904 1098 l 1
 904 998 l 1
 525 998 l 1
 525 315 l 2
 525 141.589 550.772 100 715 100 c 2
 904 100 l 1
 904 0 l 1
 565 0 l 2
EndSplineSet
EndChar

StartChar: u
Encoding: 117 117 520
Width: 1514
Flags: W
HStem: -27 110<599.47 822.778> 0 100<1113 1248> 1020 100<277 417 1113 1248>
VStem: 177 100<223.109 1020> 417 100<179.026 1020> 1008 105<100 174 231.391 1020> 1248 100<100 1020>
LayerCount: 2
Fore
SplineSet
505 83 m 1xbe
 445.6 155.6 417 258.805 417 400 c 2
 417 1020 l 1
 277 1020 l 1
 277 444 l 2
 277 239.731 341.808 116.703 505 83 c 1xbe
1248 100 m 1x7e
 1248 1020 l 1
 1113 1020 l 1
 1113 100 l 1
 1248 100 l 1x7e
608 -27 m 0xbe
 315.677 -27 177 145.577 177 444 c 2
 177 1120 l 1
 517 1120 l 1
 517 400 l 2
 517.002 219.069 566.509 83 731 83 c 0xbe
 917.901 83 1008 239.922 1008 437 c 2
 1008 1120 l 1
 1348 1120 l 1
 1348 0 l 1
 1008 0 l 1x7e
 1008 174 l 1
 921.214 53.9261 800.915 -27 608 -27 c 0xbe
EndSplineSet
EndChar

StartChar: v
Encoding: 118 118 521
Width: 1244
Flags: W
HStem: 0 100<550 681> 1020 100<205 332>
LayerCount: 2
Fore
SplineSet
205 1020 m 1
 550 100 l 1
 681 100 l 1
 332 1020 l 1
 205 1020 l 1
61 1120 m 1
 401 1120 l 1
 751 180 l 1
 1101 1120 l 1
 1201 1120 l 1
 781 0 l 1
 481 0 l 1
 61 1120 l 1
EndSplineSet
EndChar

StartChar: w
Encoding: 119 119 522
Width: 1864
Flags: W
HStem: 0 100<456 591 1249 1384> 1020 100<216 349 1009 1142>
LayerCount: 2
Fore
SplineSet
1009 1020 m 1
 1249 100 l 1
 1384 100 l 1
 1142 1020 l 1
 1009 1020 l 1
216 1020 m 1
 456 100 l 1
 591 100 l 1
 349 1020 l 1
 216 1020 l 1
86 1120 m 1
 426 1120 l 1
 656 246 l 1
 885 1120 l 1
 1219 1120 l 1
 1449 246 l 1
 1678 1120 l 1
 1778 1120 l 1
 1485 0 l 1
 1175 0 l 1
 934 918 l 1
 692 0 l 1
 379 0 l 1
 86 1120 l 1
EndSplineSet
EndChar

StartChar: x
Encoding: 120 120 523
Width: 1384
Flags: W
HStem: 0 100<958 1109> 1020 100<275 426>
LayerCount: 2
Fore
SplineSet
275 1020 m 1
 958 100 l 1
 1109 100 l 1
 426 1020 l 1
 275 1020 l 1
76 1120 m 1
 476 1120 l 1
 761 737 l 1
 1046 1120 l 1
 1170 1120 l 1
 823 653 l 1
 1308 0 l 1
 908 0 l 1
 623 383 l 1
 338 0 l 1
 214 0 l 1
 561 467 l 1
 76 1120 l 1
EndSplineSet
EndChar

StartChar: y
Encoding: 121 121 524
Width: 1279
Flags: W
HStem: -426 100<230 504.223> 1020 100<210 343>
LayerCount: 2
Fore
SplineSet
210 1020 m 1
 644 -41 l 1
 706 112 l 1
 343 1020 l 1
 210 1020 l 1
61 1120 m 1
 411 1120 l 1
 760 247 l 1
 1111 1120 l 1
 1219 1120 l 1
 727 -104 l 2
 673.667 -236.667 622.667 -323.5 574 -364.5 c 0
 525.333 -405.5 459.667 -426 377 -426 c 2
 230 -426 l 1
 230 -326 l 1
 377 -326 l 2
 435.667 -326 478.5 -314.834 505.5 -292.5 c 0
 532.5 -270.167 560.334 -229.333 589 -170 c 1
 61 1120 l 1
EndSplineSet
EndChar

StartChar: z
Encoding: 122 122 525
Width: 1208
Flags: W
HStem: 0 100<210 350 473 1122> 1020 100<113 737 860 1000>
LayerCount: 2
Fore
SplineSet
860 1020 m 1
 210 100 l 1
 350 100 l 1
 1000 1020 l 1
 860 1020 l 1
113 1120 m 1
 1122 1120 l 1
 1122 1020 l 1
 473 100 l 1
 1122 100 l 1
 1122 0 l 1
 88 0 l 1
 88 100 l 1
 737 1020 l 1
 113 1020 l 1
 113 1120 l 1
EndSplineSet
EndChar

StartChar: zero
Encoding: 48 48 526
Width: 1303
Flags: W
HStem: -29 100<539.754 762.289> 1420 100<539.881 762.174>
VStem: 136 100<378.159 1112.56> 438 100<134 1357> 764 100<134 1357> 1068 100<377.555 1113.3>
LayerCount: 2
Fore
SplineSet
651 1520 m 0
 818.333 1520 946.333 1453.83 1035 1321.5 c 0
 1123.67 1189.17 1168 997.167 1168 745.5 c 0
 1168 493.833 1123.67 301.833 1035 169.5 c 0
 946.333 37.1667 818.333 -29 651 -29 c 0
 483.667 -29 356 37.1667 268 169.5 c 0
 180 301.833 136 493.833 136 745.5 c 0
 136 997.167 180 1189.17 268 1321.5 c 0
 356 1453.83 483.667 1520 651 1520 c 0
864 134 m 1
 1000 229.333 1068 433 1068 745 c 0
 1068 1057.67 1000 1261.67 864 1357 c 1
 864 134 l 1
764 1405 m 1
 730 1415 692.5 1420 651.5 1420 c 0
 610.5 1420 572.667 1415 538 1405 c 1
 538 86 l 1
 572.667 76 610.501 71 651.5 71 c 0
 692.5 71 730 76 764 86 c 1
 764 1405 l 1
438 1357 m 1
 303.333 1261 236 1057 236 745 c 0
 236 433.667 303.333 230 438 134 c 1
 438 1357 l 1
EndSplineSet
EndChar

StartChar: one
Encoding: 49 49 527
Width: 1303
Flags: W
HStem: 0 100<136 466 566 768 866 1196> 1321 100<107 178.481> 1393 100<566 768>
VStem: 466 100<100 1393> 768 98<100 1393>
LayerCount: 2
Fore
SplineSet
566 1393 m 1xb8
 566 100 l 1
 768 100 l 1
 768 1393 l 1
 566 1393 l 1xb8
866 1493 m 17
 866 100 l 1
 1196 100 l 1
 1196 0 l 1
 136 0 l 1
 136 100 l 1
 466 100 l 1
 466 1393 l 1xb8
 107 1321 l 1
 107 1421 l 1xd8
 466 1493 l 9
 866 1493 l 17
EndSplineSet
EndChar

StartChar: two
Encoding: 50 50 528
Width: 1303
Flags: W
HStem: 0 100<251 507 626 1178> 1420 100<311.929 617.515>
VStem: 729 100<923.091 1300.98> 1010 100<841.773 1240.7>
LayerCount: 2
Fore
SplineSet
736 1403 m 1
 795.158 1324.12 829 1236.02 829 1119 c 0
 829 1052.33 817.5 988 794.5 926 c 0
 771.499 864 738.332 798.5 695 729.5 c 0
 651.667 660.5 560.333 529 421 335 c 2
 251 100 l 1
 507 100 l 1
 804 561 l 2
 868 660.333 911.334 731.333 934 774 c 0
 984.668 869.333 1010 969.167 1010 1073.5 c 0
 1010 1253.54 892.883 1364.58 736 1403 c 1
729 1111.5 m 0
 729 1279.89 644.652 1420 485 1420 c 0
 383.667 1420 268.667 1370.33 140 1271 c 1
 140 1416 l 1
 312.667 1485.34 459.333 1520 580 1520 c 0
 880.931 1520 1110 1361.76 1110 1072 c 24
 1110 933.096 1072.03 820.565 1021.5 727 c 0
 994.5 677 950 603.667 888 507 c 2
 626 100 l 1
 1178 100 l 1
 1178 0 l 1
 130 0 l 1
 131 100 l 1
 132.333 103.333 202 201.167 340 393.5 c 0
 478 585.833 567.333 714.667 608 780 c 0
 688.668 907.333 729.001 1017.83 729 1111.5 c 0
EndSplineSet
EndChar

StartChar: three
Encoding: 51 51 529
Width: 1303
Flags: W
HStem: -29 100<264.224 733.646> 45 94<156 305.146> 758 100<414 733.31> 1360 96<201 394.245> 1420 100<286.571 731.896>
VStem: 735 100<117 719 895 1381> 1004 100<997.346 1284.85> 1039 100<248.62 590.863>
LayerCount: 2
Fore
SplineSet
1139 434 m 0x2d
 1139 112.471 893.966 -29 555 -29 c 0xad
 430.333 -29 297.333 -4.33333 156 45 c 1
 156 151 l 1
 189 139 l 1x65
 319.667 93.6667 441.667 71 555 71 c 0
 622.333 71 682.333 76.3333 735 87 c 1
 735 748 l 1
 699 754.672 660 758.006 618 758 c 2
 414 758 l 1
 414 858 l 1
 626 858 l 2
 665.333 858 701.667 860.667 735 866 c 1
 735 1410 l 1
 696.333 1416.67 651.667 1420 601 1420 c 0xad
 497 1420 372.667 1400 228 1360 c 1
 201 1352 l 1
 201 1456 l 1x35
 354.333 1498.67 489.333 1520 606 1520 c 0
 881.49 1519.99 1104 1393.81 1104 1133 c 0x2e
 1104 950.99 988.048 845.458 835 806 c 1
 1010.08 767.778 1139 639.215 1139 434 c 0x2d
835 117 m 1
 971 173.667 1039 279.333 1039 434 c 0
 1039 584.326 943.755 673.998 835 719 c 1
 835 117 l 1
835 895 m 1
 921.8 931.481 1004 1011.68 1004 1133 c 0x26
 1004 1247.67 947.667 1330.33 835 1381 c 1
 835 895 l 1
EndSplineSet
EndChar

StartChar: four
Encoding: 52 52 530
Width: 1303
Flags: W
HStem: 0 100<735 935> 420 100<204 635 1035 1208> 1393 100<732 935>
VStem: 635 100<100 420 520 1317> 935 100<100 420 520 1393>
LayerCount: 2
Fore
SplineSet
935 1393 m 1
 732 1393 l 1
 735 100 l 1
 935 100 l 1
 935 1393 l 1
635 1317 m 1
 204 520 l 1
 635 520 l 1
 635 1317 l 1
632 1493 m 1
 1035 1493 l 1
 1035 520 l 1
 1208 520 l 1
 1208 420 l 1
 1035 420 l 1
 1035 0 l 1
 635 0 l 1
 635 420 l 1
 90 420 l 1
 90 547 l 1
 632 1493 l 1
EndSplineSet
EndChar

StartChar: five
Encoding: 53 53 531
Width: 1303
Flags: W
HStem: -29 96<281.601 749.922> 817 96<314.217 511 611 743.725> 1393 100<311 511 611 1054>
VStem: 211 100<878 1393> 511 100<916 1393> 752 100<111 775> 1056 108<249.955 627.316>
LayerCount: 2
Fore
SplineSet
511 913 m 1
 511 1393 l 1
 311 1393 l 1
 311 878 l 1
 379.667 896 446.333 907.667 511 913 c 1
852 111 m 1
 988 172.333 1056 282.333 1056 441 c 0
 1056 599.667 988 711 852 775 c 1
 852 111 l 1
611 916 m 1
 941.568 905.102 1164 763.795 1164 441 c 0
 1164 293.667 1114 178.5 1014 95.5 c 0
 914 12.5 756.333 -29 541 -29 c 0
 417.667 -29 286.667 -9 148 31 c 1
 148 167 l 1
 274 100.333 410.333 67 557 67 c 0
 643 67 708 71.3333 752 80 c 1
 752 807 l 1
 719.333 813.673 667.667 817.006 597 817 c 0
 477 817 348.333 792 211 742 c 1
 211 1493 l 1
 1054 1493 l 1
 1054 1393 l 1
 611 1393 l 1
 611 916 l 1
EndSplineSet
EndChar

StartChar: six
Encoding: 54 54 532
Width: 1303
Flags: W
HStem: -29 116<531.513 792> 887 100<520.072 790.739> 1366 94<929.89 1097> 1420 100<521.742 1034.04>
VStem: 113 100<394.083 1048.82> 418 100<137 878.423 965 1309> 792 100<112 851> 1094 100<266.691 696.885>
LayerCount: 2
Fore
SplineSet
892 112 m 1xcf
 1026.67 178 1094 300.333 1094 479 c 0
 1094 665.667 1026.67 789.667 892 851 c 1
 892 112 l 1xcf
418 1309 m 1
 281.333 1189.67 213 1007.67 213 763 c 0
 213 445 281.333 236.333 418 137 c 1
 418 1309 l 1
518 87 m 1
 580.328 69.806 724.804 67.0542 792 79 c 1
 792 881 l 1
 765.333 885 723.5 887 666.5 887 c 0
 609.5 887 560 880.667 518 868 c 1
 518 87 l 1
113 733.5 m 0
 113 1189.62 320.601 1520 762 1520 c 0xdf
 873.333 1520 985 1500 1097 1460 c 1
 1097 1354 l 1
 1063 1366 l 2xef
 961 1402 860.333 1420 761 1420 c 0xdf
 661.667 1420 580.667 1405 518 1375 c 1
 518 965 l 1
 562 979.67 618.667 987.004 688 987 c 0
 1007.82 987 1194 796.982 1194 481.5 c 0
 1194 165.682 996.272 -29 676 -29 c 0
 257.01 -29 113 292.098 113 733.5 c 0
EndSplineSet
EndChar

StartChar: seven
Encoding: 55 55 533
Width: 1303
Flags: W
HStem: 0 100<418 632> 1393 100<65 810 917 1131>
LayerCount: 2
Fore
SplineSet
917 1393 m 1
 418 100 l 1
 632 100 l 1
 1131 1393 l 1
 917 1393 l 1
65 1493 m 1
 1238 1493 l 1
 1238 1393 l 1
 701 0 l 9
 272 0 l 17
 810 1393 l 25
 65 1393 l 1
 65 1493 l 1
EndSplineSet
EndChar

StartChar: eight
Encoding: 56 56 534
Width: 1303
Flags: W
HStem: -29 100<481.811 820.174> 746 100<547.533 754.467> 1420 100<553.194 749.81>
VStem: 139 105<221.808 582.618> 174 100<981.846 1283.25> 446 100<100 714 879 1387> 756 100<100 714 879 1387> 1028 100<982.047 1283.46> 1058 105<221.827 583.07>
LayerCount: 2
Fore
SplineSet
856 100 m 1xe680
 995.334 149.333 1062.67 252 1058 408 c 0
 1053.33 560 986 662 856 714 c 1
 856 100 l 1xe680
446 1387 m 1
 344.861 1345.62 274 1256.09 274 1133 c 0xee
 274 1008.85 344.551 920.502 446 879 c 1
 446 1387 l 1
139 420 m 0xf680
 139 626.632 271.033 752.689 446 794 c 1
 446 796 l 1
 290.635 834.841 174 947.67 174 1133 c 0
 174 1391.59 380.562 1520.01 651.5 1520 c 0
 922.601 1520 1128 1391.7 1128 1133 c 0xef
 1128 947.743 1011.29 834.822 856 796 c 1
 856 795 l 1
 1031.59 752.618 1163 627.629 1163 420 c 0
 1163 116.554 963.381 -29 651 -29 c 0
 338.549 -29 139 116.508 139 420 c 0xf680
446 100 m 1
 446 714 l 1
 316 662 248.667 560 244 408 c 0xf6
 239.333 252 306.667 149.333 446 100 c 1
546 77 m 1
 578.667 73 613.667 71 651 71 c 0
 688.333 71 723.333 73 756 77 c 1
 756 739 l 1
 723.333 743.684 688.333 746.017 651 746 c 0
 613.667 746 578.667 743.667 546 739 c 1
 546 77 l 1
546 1413 m 1
 546 853 l 1
 578 848.333 613 846 651 846 c 0
 689 846.019 724 848.353 756 853 c 1
 756 1413 l 1
 724 1417.67 689 1420 651 1420 c 0
 613 1419.96 578 1417.62 546 1413 c 1
856 879 m 1
 957.139 920.375 1028 1009.91 1028 1133 c 0xe7
 1028 1257.15 957.449 1345.5 856 1387 c 1
 856 879 l 1
EndSplineSet
EndChar

StartChar: nine
Encoding: 57 57 535
Width: 1300
Flags: W
HStem: -29 100<265.809 778.654> 31 94<203 370.109> 504 100<509.261 779.928> 1420 100<458.682 774.334>
VStem: 106 100<797.422 1222.5> 408 100<640 1379> 782 100<182 526 612.578 1354> 1087 100<442.182 1096.92>
LayerCount: 2
Fore
SplineSet
408 1379 m 1x3f
 273.333 1313 206 1190.67 206 1012 c 0
 206 825.333 273.333 701.333 408 640 c 1
 408 1379 l 1x3f
882 182 m 1
 1018.67 301.333 1087 483.333 1087 728 c 0
 1087 1046 1018.67 1254.67 882 1354 c 1
 882 182 l 1
782 1404 m 1
 743.333 1414.67 695.5 1420 638.5 1420 c 0
 581.5 1420 538 1417.33 508 1412 c 1
 508 610 l 1
 534.667 606 576.5 604 633.5 604 c 0
 690.5 604.002 740 610.336 782 623 c 1
 782 1404 l 1
1187 757.5 m 0
 1187 301.375 979.4 -29 538 -29 c 0xbf
 426.667 -29 315 -9 203 31 c 1
 203 137 l 1
 237 125 l 2x7f
 339 89 439.667 71 539 71 c 0xbf
 638.333 71 719.333 86 782 116 c 1
 782 526 l 1
 738 511.332 681.333 503.999 612 504 c 0
 292.181 504 106 694.018 106 1009.5 c 0
 106 1325.32 303.73 1520 624 1520 c 0
 1042.99 1520 1187 1198.9 1187 757.5 c 0
EndSplineSet
EndChar
